<svg xmlns="http://www.w3.org/2000/svg" xmlns:xlink="http://www.w3.org/1999/xlink" version="1.1" id="Layer_1" x="0px" y="0px" style="enable-background:new 0 0 612 792;" xml:space="preserve" viewBox="180.33 80.44 262.44 262.44">
<style type="text/css">
	.st0{fill:#FFFFFF;}
	.st1{fill:#F58220;}
	.st2{fill:none;stroke:#AC8B2F;stroke-width:4.9181;stroke-miterlimit:10;}
	.st3{fill:#AC8B2F;}
</style>
<circle class="st0" cx="311.55" cy="211.66" r="131.22"/>
<path class="st1" d="M438.96,211.66c0,70.32-57.01,127.33-127.33,127.33S184.3,281.98,184.3,211.66S241.31,84.34,311.63,84.34  S438.96,141.34,438.96,211.66z M311.63,124.83c-47.96,0-86.84,38.88-86.84,86.84s38.88,86.84,86.84,86.84s86.84-38.88,86.84-86.84  S359.59,124.83,311.63,124.83z"/>
<g>
	<g>
		<path class="st2" d="M380.39,178.51c-12.07-25.93-38.35-43.9-68.84-43.9c-30.48,0-56.77,17.97-68.84,43.9L380.39,178.51z"/>
		<path class="st2" d="M277.14,178.52c6.03-25.93,19.18-43.9,34.42-43.9c15.28,0,28.44,18.06,34.46,44.08"/>
		<line class="st2" x1="311.55" y1="134.61" x2="311.55" y2="178.52"/>
		<line class="st2" x1="259.84" y1="154.97" x2="363.27" y2="154.97"/>
	</g>
	<g>
		<path class="st2" d="M380.39,244.31c-12.07,25.93-38.35,43.9-68.84,43.9c-30.48,0-56.77-17.97-68.84-43.9L380.39,244.31z"/>
		<path class="st2" d="M277.14,244.31c6.03,25.93,19.18,43.9,34.42,43.9c15.28,0,28.44-18.06,34.46-44.08"/>
		<line class="st2" x1="311.55" y1="288.22" x2="311.55" y2="244.31"/>
		<line class="st2" x1="259.84" y1="267.86" x2="363.27" y2="267.86"/>
	</g>
</g>
<g>
	<path class="st0" d="M211.76,157.35l0.76,2.05c-1.14,0.52-1.84,1.09-2.38,2.21c-0.9,1.85-0.27,4.12,3.25,5.82   c3.57,1.73,5.43,1.32,6.42-0.72c0.36-0.74,0.55-1.53,0.5-2.33l-3.4-1.65l-0.95,1.97l-1.98-0.63l2.27-4.69l6.39,3.09   c0.18,1.65-0.08,3.44-0.94,5.22c-1.76,3.63-5.09,4.54-9.57,2.37c-4.42-2.14-5.48-6.04-3.92-9.25   C209.1,158.95,210.29,157.99,211.76,157.35z"/>
	<path class="st0" d="M226.02,159.16l-12.25-7.77l1.5-2.36l12.25,7.77L226.02,159.16z"/>
	<path class="st0" d="M228.96,148.91l2.06,2.8l-1.8,2.25l-8.52-12.58l2.14-2.67l14.14,5.55l-1.83,2.3l-3.19-1.39L228.96,148.91z    M223.4,141.41l4.26,5.77l2.31-2.89L223.4,141.41z"/>
	<path class="st0" d="M236.68,126.02l0.12,2.19c-1.07,0.07-1.94,0.41-2.66,1.11c-1.44,1.38-1.54,3.52,1.19,6.35   c2.65,2.75,4.82,2.82,6.32,1.38c0.89-0.86,1.1-1.88,1.27-2.92l2.1,0.31c-0.01,1.26-0.5,2.93-1.92,4.3   c-2.71,2.61-6.45,2.51-9.87-1.04c-3.38-3.51-3.24-7.35-0.69-9.8C233.9,126.56,235.14,126.13,236.68,126.02z"/>
	<path class="st0" d="M255.73,112.52l-0.32,2.16c-1.06-0.15-1.98,0.01-2.83,0.55c-1.69,1.06-2.22,3.14-0.12,6.46   c2.04,3.23,4.15,3.74,5.9,2.63c1.05-0.66,1.46-1.62,1.84-2.6l2,0.73c-0.26,1.23-1.08,2.77-2.75,3.82c-3.18,2-6.82,1.15-9.45-3.02   c-2.6-4.12-1.68-7.85,1.31-9.74C252.9,112.49,254.2,112.31,255.73,112.52z"/>
	<path class="st0" d="M273.03,116.41l0.67,2.19l-7.51,3.48l-6.09-13.17l2.52-1.16l5.14,11.11L273.03,116.41z"/>
	<path class="st0" d="M286.5,106.8c1.38,4.58-0.16,7.97-3.88,9.09c-3.72,1.12-6.88-0.75-8.28-5.4c-1.38-4.57,0.18-7.98,3.9-9.1   S285.09,102.15,286.5,106.8z M277.13,109.65c1.13,3.74,2.84,4.83,4.87,4.21c2.07-0.63,2.83-2.46,1.7-6.22   c-1.12-3.72-2.76-4.85-4.85-4.22C276.78,104.05,276,105.91,277.13,109.65z"/>
	<path class="st0" d="M297.84,112.57c-3.54,0.49-5.61-1.33-6.02-4.29l-1.33-9.68l2.75-0.38l1.31,9.53c0.28,2.02,1.23,2.91,2.99,2.66   c1.79-0.25,2.46-1.36,2.19-3.37l-1.31-9.53l2.77-0.38l1.33,9.68C302.92,109.71,301.36,112.09,297.84,112.57z"/>
	<path class="st0" d="M319.03,104.1c-0.09,5.88-3.71,7.27-7.17,7.21l-3.95-0.06l0.23-14.51l3.57,0.06   C315.53,96.86,319.13,98.1,319.03,104.1z M310.72,109.22l1.36,0.02c2.16,0.03,3.96-0.9,4.03-5.19c0.07-4.37-1.81-5.13-3.95-5.17   l-1.28-0.02L310.72,109.22z"/>
	<path class="st0" d="M341.82,102.27l-1.73,1.24c-0.78-1.09-1.68-1.68-2.85-1.95c-1.27-0.29-2.32,0.07-2.58,1.17   c-0.24,1.02,0.21,1.6,2.39,2.88c2.3,1.35,3.78,2.77,3.16,5.43c-0.59,2.54-2.99,3.88-6.36,3.1c-2.25-0.52-3.74-1.71-4.65-3.12   l1.8-1.26c0.77,1.15,1.79,1.94,3.27,2.29c1.51,0.35,2.77-0.14,3.09-1.51c0.27-1.19-0.2-1.86-2.25-3.04   c-2.75-1.61-3.77-3.09-3.27-5.24c0.54-2.35,2.93-3.44,5.71-2.8C339.62,99.93,340.85,100.86,341.82,102.27z"/>
	<path class="st0" d="M350.04,105.61l-1.42,3.8l4.37,1.63l-0.72,1.93l-4.37-1.63l-1.49,3.99l5.37,2.01l-0.73,1.95l-7.97-2.98   l5.08-13.59l7.89,2.95l-1,1.82L350.04,105.61z"/>
	<path class="st0" d="M369.81,113.92l-2.04,0.79c-0.4-1-0.99-1.72-1.88-2.19c-1.76-0.94-3.82-0.37-5.67,3.1   c-1.8,3.37-1.19,5.46,0.64,6.43c1.09,0.58,2.13,0.47,3.17,0.31l0.36,2.1c-1.2,0.38-2.94,0.43-4.69-0.5   c-3.32-1.77-4.38-5.36-2.06-9.71c2.29-4.3,5.99-5.35,9.11-3.69C368.43,111.45,369.23,112.49,369.81,113.92z"/>
	<path class="st0" d="M370.68,130.99c-2.88-2.11-3.1-4.86-1.33-7.26l5.78-7.87l2.23,1.64l-5.7,7.75c-1.21,1.64-1.14,2.94,0.29,4   c1.46,1.07,2.71,0.74,3.92-0.9l5.7-7.75l2.25,1.65l-5.78,7.87C376.32,132.47,373.54,133.09,370.68,130.99z"/>
	<path class="st0" d="M384.9,134.9l-4.1,4.13l-1.97-1.95l10.22-10.31l3.07,3.05c2.7,2.68,3.11,5.04,1.09,7.08   c-1.39,1.4-2.9,1.56-4.85,0.72l-1.75,7.17l-2.27-2.25l1.81-6.4L384.9,134.9z M387.53,134.69c1.22,1.21,2.4,1.4,3.63,0.16   c1.11-1.12,0.94-2.23-0.49-3.65l-1.06-1.05l-3.3,3.33L387.53,134.69z"/>
	<path class="st0" d="M388.82,147.63l11.29-9.11l1.75,2.17l-11.29,9.11L388.82,147.63z"/>
	<path class="st0" d="M406.88,151.61l-10.33,6.7l-1.52-2.34l10.33-6.7l-2.13-3.28l1.85-1.2l5.86,9.04l-2.01,0.95L406.88,151.61z"/>
	<path class="st0" d="M402.84,169.93l-1.21-2.54l4.95-2.35l6.15-8.09l1.32,2.77l-4.77,5.66l7.41-0.13l1.26,2.66l-10.14-0.34   L402.84,169.93z"/>
</g>
<g>
	<path class="st0" d="M252.63,295.58l-2.3,3.34l3.84,2.64l-1.17,1.7l-3.84-2.64l-2.42,3.51l4.72,3.25l-1.18,1.71l-7.01-4.82   l8.22-11.96l6.94,4.77l-1.41,1.53L252.63,295.58z"/>
	<path class="st0" d="M270.15,304.96l-1.97,0.79c-0.5-1.24-1.24-2.03-2.31-2.57c-1.16-0.58-2.27-0.48-2.78,0.53   c-0.47,0.94-0.17,1.61,1.65,3.37c1.91,1.85,3.02,3.58,1.79,6.02c-1.17,2.33-3.82,3.06-6.92,1.51c-2.06-1.04-3.24-2.54-3.78-4.13   l2.05-0.8c0.48,1.3,1.28,2.31,2.63,2.99c1.39,0.7,2.72,0.52,3.35-0.74c0.55-1.09,0.25-1.85-1.47-3.49   c-2.3-2.21-2.93-3.89-1.94-5.87c1.08-2.16,3.66-2.65,6.21-1.37C268.57,302.17,269.55,303.36,270.15,304.96z"/>
	<path class="st0" d="M283.4,309.77l-1.84,1.06c-0.67-1.16-1.51-1.84-2.64-2.22c-1.23-0.42-2.32-0.16-2.68,0.91   c-0.34,1,0.05,1.61,2.1,3.1c2.15,1.57,3.49,3.13,2.61,5.72c-0.83,2.47-3.36,3.57-6.64,2.46c-2.19-0.74-3.56-2.07-4.32-3.57   l1.92-1.08c0.65,1.22,1.59,2.11,3.02,2.6c1.47,0.5,2.77,0.14,3.22-1.19c0.39-1.15-0.01-1.87-1.94-3.25   c-2.58-1.87-3.45-3.45-2.74-5.54c0.77-2.29,3.26-3.13,5.96-2.22C281.44,307.22,282.57,308.27,283.4,309.77z"/>
	<path class="st0" d="M291.19,312.17l-0.76,3.98l4.58,0.87l-0.38,2.02l-4.58-0.87l-0.8,4.19l5.63,1.07l-0.39,2.04l-8.36-1.59   l2.71-14.26l8.27,1.57l-0.67,1.97L291.19,312.17z"/>
	<path class="st0" d="M308.79,326.62l-4.52-11.92c0.1,1.29,0.26,3.14,0.15,5.83l-0.23,5.92l-2.52-0.1l0.56-14.5l3.5,0.13l4.6,11.94   c-0.1-0.8-0.27-2.91-0.19-4.97l0.26-6.8l2.52,0.1l-0.56,14.5L308.79,326.62z"/>
	<path class="st0" d="M324.23,313.56l1.34,12.23l-2.78,0.3l-1.34-12.23l-3.88,0.43l-0.24-2.19l10.71-1.17l-0.05,2.22L324.23,313.56z   "/>
	<path class="st0" d="M334.92,324.26l-3.11-14.17l2.73-0.6l3.11,14.17L334.92,324.26z"/>
	<path class="st0" d="M345.36,318.09l0.23,3.47l-2.72,0.93l-0.42-15.19l3.24-1.11l8.94,12.27l-2.78,0.95l-1.94-2.89L345.36,318.09z    M344.71,308.77l0.49,7.15l3.5-1.19L344.71,308.77z"/>
	<path class="st0" d="M366.71,310.1l0.74,2.17l-7.39,3.73l-6.54-12.96l2.48-1.25l5.52,10.93L366.71,310.1z"/>
	<path class="st0" d="M373.13,293.04l-0.26,2.11c-1.33-0.16-2.38,0.1-3.36,0.78c-1.07,0.74-1.52,1.76-0.88,2.69   c0.59,0.87,1.32,0.93,3.74,0.18c2.55-0.78,4.6-0.91,6.14,1.34c1.47,2.15,0.84,4.82-2.02,6.79c-1.91,1.31-3.79,1.61-5.44,1.31   l0.29-2.18c1.37,0.21,2.64-0.01,3.89-0.86c1.28-0.88,1.77-2.13,0.98-3.29c-0.69-1-1.5-1.11-3.76-0.4   c-3.05,0.94-4.83,0.69-6.07-1.13c-1.37-1.99-0.56-4.48,1.8-6.1C369.92,293.08,371.44,292.8,373.13,293.04z"/>
</g>
<g>
	<path class="st3" d="M279.61,210.97v1.86c0,12.83-9.05,22.69-22.13,22.69c-13.08,0-23.62-11.28-23.62-24.24   c0-13.45,10.79-24.49,24.24-24.49c7.25,0,14.45,3.29,19.03,9.05l-4.09,3.91c-3.35-4.59-8.99-7.63-14.69-7.63   c-10.48,0-18.66,8.49-18.66,18.97c0,9.8,8.06,19.09,18.17,19.09c7.25,0,15.07-6.26,15.31-13.89h-12.09v-5.33H279.61z"/>
	<path class="st3" d="M319.42,196.71c-3.35-2.98-7.94-4.59-12.34-4.59c-10.48,0-18.48,8.74-18.48,19.1   c0,10.23,7.94,18.97,18.35,18.97c4.59,0,8.99-1.74,12.46-4.84v6.88c-3.6,2.11-8.18,3.29-12.28,3.29   c-13.33,0-24.37-10.6-24.37-24.12c0-13.83,11.1-24.61,24.86-24.61c4.09,0,8.25,0.99,11.78,3.16V196.71z"/>
	<path class="st3" d="M332.19,229.2h14.2v5.33h-20.02v-46.75h5.83V229.2z"/>
	<path class="st3" d="M350.98,187.78h9.67c14.32,0,26.22,7.56,26.22,23.12c0,15.93-11.66,23.62-26.41,23.62h-9.49V187.78z    M356.81,229.2h2.05c11.9,0,22.19-4.46,22.19-18.04c0-13.64-10.29-18.04-22.19-18.04h-2.05V229.2z"/>
</g>
</svg>