<svg xmlns="http://www.w3.org/2000/svg" xmlns:xlink="http://www.w3.org/1999/xlink" version="1.1" id="Layer_1" x="0px" y="0px" style="enable-background:new 0 0 612 792;" xml:space="preserve" viewBox="180.33 80.44 262.44 262.44">
<style type="text/css">
	.st0{fill:#FFFFFF;}
	.st1{fill:#732A8A;}
	.st2{fill:none;stroke:#AC8B2F;stroke-width:4.9181;stroke-miterlimit:10;}
	.st3{fill:#AC8B2F;}
</style>
<circle class="st0" cx="311.55" cy="211.66" r="131.22"/>
<path class="st1" d="M438.96,211.66c0,70.32-57.01,127.33-127.33,127.33S184.3,281.98,184.3,211.66S241.31,84.34,311.63,84.34  S438.96,141.34,438.96,211.66z M311.63,124.83c-47.96,0-86.84,38.88-86.84,86.84s38.88,86.84,86.84,86.84s86.84-38.88,86.84-86.84  S359.59,124.83,311.63,124.83z"/>
<g>
	<g>
		<path class="st2" d="M380.39,178.51c-12.07-25.93-38.35-43.9-68.84-43.9c-30.48,0-56.77,17.97-68.84,43.9L380.39,178.51z"/>
		<path class="st2" d="M277.14,178.52c6.03-25.93,19.18-43.9,34.42-43.9c15.28,0,28.44,18.06,34.46,44.08"/>
		<line class="st2" x1="311.55" y1="134.61" x2="311.55" y2="178.52"/>
		<line class="st2" x1="259.84" y1="154.97" x2="363.27" y2="154.97"/>
	</g>
	<g>
		<path class="st2" d="M380.39,244.31c-12.07,25.93-38.35,43.9-68.84,43.9c-30.48,0-56.77-17.97-68.84-43.9L380.39,244.31z"/>
		<path class="st2" d="M277.14,244.31c6.03,25.93,19.18,43.9,34.42,43.9c15.28,0,28.44-18.06,34.46-44.08"/>
		<line class="st2" x1="311.55" y1="288.22" x2="311.55" y2="244.31"/>
		<line class="st2" x1="259.84" y1="267.86" x2="363.27" y2="267.86"/>
	</g>
</g>
<g>
	<path class="st0" d="M222.5,141.14l0.4,2.15c-1.21,0.32-2,0.77-2.72,1.77c-1.2,1.67-0.96,4.01,2.21,6.29   c3.22,2.31,5.12,2.23,6.44,0.38c0.48-0.67,0.81-1.41,0.89-2.21l-3.07-2.2l-1.27,1.77l-1.84-0.96l3.03-4.23l5.77,4.14   c-0.1,1.66-0.66,3.37-1.81,4.98c-2.35,3.28-5.79,3.6-9.83,0.7c-3.99-2.86-4.37-6.88-2.29-9.78   C219.6,142.27,220.94,141.52,222.5,141.14z"/>
	<path class="st0" d="M235.58,146.11l-10.85-9.64l1.85-2.09l10.85,9.64L235.58,146.11z"/>
	<path class="st0" d="M239.38,137.17l1.62,3.08l-2.11,1.95l-6.53-13.71l2.51-2.32l13.15,7.6l-2.16,2l-2.94-1.85L239.38,137.17z    M235,128.92l3.35,6.34l2.71-2.51L235,128.92z"/>
	<path class="st0" d="M249.45,116.34l-0.18,2.18c-1.07-0.08-1.98,0.13-2.79,0.73c-1.62,1.17-2.01,3.27,0.29,6.45   c2.24,3.1,4.38,3.47,6.06,2.25c1-0.73,1.36-1.71,1.67-2.71l2.04,0.6c-0.19,1.25-0.91,2.83-2.5,3.99c-3.05,2.2-6.74,1.58-9.63-2.42   c-2.86-3.95-2.17-7.73,0.68-9.8C246.63,116.49,247.92,116.23,249.45,116.34z"/>
	<path class="st0" d="M262.06,110.29l1.89,3.92l4.03-1.94l0.89,1.85l-4.03,1.94l2.62,5.45l-2.5,1.2l-6.29-13.07l7.4-3.56l0.63,1.98   L262.06,110.29z"/>
	<path class="st0" d="M283.82,107.47c1.5,4.55,0.05,7.97-3.64,9.19c-3.69,1.22-6.89-0.58-8.42-5.18c-1.5-4.53-0.03-7.98,3.66-9.2   C279.11,101.06,282.3,102.86,283.82,107.47z M274.53,110.56c1.23,3.71,2.96,4.75,4.98,4.08c2.05-0.68,2.77-2.53,1.54-6.26   c-1.22-3.69-2.88-4.78-4.96-4.09C274.04,104.98,273.31,106.85,274.53,110.56z"/>
	<path class="st0" d="M294.31,113.12c-3.52,0.61-5.65-1.13-6.16-4.07l-1.67-9.62l2.73-0.47l1.64,9.48c0.35,2.01,1.33,2.86,3.09,2.56   c1.78-0.31,2.41-1.44,2.07-3.45l-1.64-9.48l2.75-0.48l1.67,9.62C299.28,110.09,297.81,112.52,294.31,113.12z"/>
	<path class="st0" d="M310.45,111.32l-5.31-11.6c0.18,1.28,0.47,3.12,0.54,5.81l0.17,5.92l-2.52,0.07l-0.41-14.51l3.51-0.1   l5.39,11.61c-0.15-0.79-0.46-2.89-0.52-4.94l-0.19-6.8l2.52-0.07l0.41,14.51L310.45,111.32z"/>
	<path class="st0" d="M329.73,105.37c-0.67,5.84-4.4,6.87-7.84,6.48l-3.92-0.45l1.64-14.41l3.55,0.4   C326.95,97.82,330.41,99.4,329.73,105.37z M320.96,109.65l1.36,0.15c2.15,0.25,4.03-0.51,4.52-4.77c0.5-4.34-1.3-5.28-3.43-5.53   l-1.27-0.15L320.96,109.65z"/>
	<path class="st0" d="M334.16,110.41l-1.68,3.04l-2.79-0.69l7.86-13l3.32,0.82l0.88,15.16l-2.85-0.7l-0.07-3.48L334.16,110.41z    M338.65,102.22l-3.46,6.28l3.59,0.89L338.65,102.22z"/>
	<path class="st0" d="M352.07,106.52l-4.28,11.53l-2.62-0.97l4.28-11.53l-3.66-1.36l0.77-2.07l10.1,3.75l-1.04,1.96L352.07,106.52z"/>
	<path class="st0" d="M353.86,120.65l6.31-13.06l2.51,1.21l-6.3,13.06L353.86,120.65z"/>
	<path class="st0" d="M373.98,123.79c-2.54,4.06-6.11,5.12-9.4,3.05c-3.29-2.06-3.95-5.67-1.38-9.78c2.53-4.04,6.13-5.11,9.42-3.04   C375.91,116.08,376.56,119.68,373.98,123.79z M365.68,118.61c-2.07,3.31-1.77,5.31,0.03,6.44c1.83,1.15,3.71,0.52,5.8-2.81   c2.06-3.29,1.84-5.27-0.01-6.43C369.66,114.66,367.75,115.3,365.68,118.61z"/>
	<path class="st0" d="M378.02,136.48l3.84-12.16c-0.72,1.07-1.75,2.63-3.49,4.67l-3.85,4.5l-1.92-1.64l9.43-11.04l2.67,2.28   l-3.79,12.23c0.42-0.69,1.59-2.45,2.93-4.02l4.42-5.18l1.92,1.64l-9.43,11.04L378.02,136.48z"/>
	<path class="st0" d="M387.38,140.88l-3.11,1.56l-1.92-2.15l13.84-6.29l2.28,2.56l-7.85,13.01l-1.96-2.2l1.91-2.91L387.38,140.88z    M395.71,136.66l-6.41,3.23l2.46,2.76L395.71,136.66z"/>
	<path class="st0" d="M398.66,157.18l-2.04,1.04l-4.73-6.79l11.9-8.29l1.58,2.27l-10.04,6.99L398.66,157.18z"/>
</g>
<g>
	<path class="st0" d="M210.2,221.64l-1.72-1.36c0.66-0.85,0.98-1.72,0.93-2.73c-0.09-1.99-1.62-3.48-5.54-3.31   c-3.82,0.16-5.31,1.74-5.22,3.82c0.05,1.24,0.68,2.07,1.34,2.89l-1.62,1.37c-0.94-0.84-1.86-2.32-1.95-4.29   c-0.16-3.76,2.39-6.49,7.32-6.7c4.87-0.21,7.65,2.45,7.8,5.97C211.63,219.21,211.14,220.43,210.2,221.64z"/>
	<path class="st0" d="M198.47,232.54l-0.47-2.77l5.4-0.92l8.12-6.12l0.52,3.02l-6.13,4.16l7.16,1.89l0.5,2.9l-9.67-3.08   L198.47,232.54z"/>
	<path class="st0" d="M207.47,250.13c-3.05,0.95-4.75-1.18-5.8-4.55l-1.3-4.17l13.85-4.32l1.13,3.63c1.11,3.57,0.79,6.05-1.74,6.84   c-1.72,0.54-3.09-0.4-3.79-1.63C210.02,247.6,209.77,249.41,207.47,250.13z M206.7,247.33c1.66-0.52,1.86-1.88,1.38-3.42   l-0.57-1.82l-4.33,1.35l0.48,1.54C204.21,246.73,204.96,247.88,206.7,247.33z M209.35,241.51l0.51,1.62   c0.45,1.44,1.39,2.19,2.69,1.78c1.4-0.44,1.5-1.53,0.94-3.33l-0.39-1.24L209.35,241.51z"/>
	<path class="st0" d="M217.88,253.4l-3.68,1.69l1.94,4.24l-1.87,0.86l-1.94-4.24l-3.88,1.78l2.39,5.21l-1.89,0.87l-3.55-7.73   l13.19-6.05l3.51,7.65l-1.99,0.59L217.88,253.4z"/>
	<path class="st0" d="M217.84,267.69l-4.94,3.08l-1.47-2.35l12.31-7.68l2.29,3.67c2.01,3.23,1.87,5.62-0.57,7.14   c-1.68,1.04-3.18,0.85-4.89-0.42l-3.35,6.57l-1.69-2.71l3.24-5.8L217.84,267.69z M220.44,268.1c0.91,1.46,2.01,1.91,3.49,0.99   c1.34-0.83,1.43-1.95,0.36-3.67l-0.79-1.27l-3.97,2.48L220.44,268.1z"/>
	<path class="st0" d="M235.77,280l-2.13-0.08c0.04-1.34-0.3-2.36-1.06-3.28c-0.83-1.01-1.88-1.36-2.76-0.65   c-0.81,0.67-0.81,1.4,0.14,3.74c0.99,2.47,1.3,4.5-0.81,6.23c-2.01,1.65-4.73,1.25-6.93-1.43c-1.47-1.79-1.92-3.64-1.77-5.31   l2.2,0.1c-0.09,1.38,0.23,2.63,1.19,3.8c0.99,1.2,2.28,1.58,3.36,0.69c0.94-0.77,0.98-1.59,0.07-3.78c-1.2-2.95-1.1-4.75,0.61-6.15   c1.87-1.53,4.42-0.94,6.23,1.27C235.46,276.81,235.86,278.29,235.77,280z"/>
	<path class="st0" d="M239.9,284.99l-2.8,2.93l3.37,3.22l-1.42,1.49l-3.37-3.22l-2.95,3.08l4.14,3.97l-1.44,1.5l-6.14-5.88   l10.04-10.48l6.08,5.82l-1.64,1.28L239.9,284.99z"/>
	<path class="st0" d="M255.14,296.45l-2.14,0.47c-0.24-1.05-0.72-1.85-1.52-2.45c-1.6-1.19-3.72-0.95-6.07,2.2   c-2.29,3.06-2.01,5.21-0.34,6.45c0.99,0.74,2.03,0.79,3.08,0.79l0.04,2.12c-1.25,0.19-2.97-0.02-4.55-1.2   c-3.01-2.25-3.52-5.96-0.56-9.91c2.92-3.9,6.73-4.38,9.56-2.26C254.15,293.8,254.79,294.96,255.14,296.45z"/>
	<path class="st0" d="M255.73,312.56c-3.12-1.73-3.7-4.42-2.25-7.03l4.73-8.54l2.43,1.34l-4.66,8.41c-0.99,1.78-0.76,3.06,0.8,3.93   c1.58,0.88,2.78,0.39,3.77-1.39l4.66-8.41l2.44,1.35l-4.73,8.54C261.51,313.31,258.84,314.28,255.73,312.56z"/>
	<path class="st0" d="M270.88,313.01l-2.07,5.44l-2.59-0.99l5.17-13.56l4.04,1.54c3.55,1.35,4.88,3.34,3.86,6.03   c-0.7,1.84-2.02,2.6-4.15,2.62l1.3,7.26l-2.98-1.14l-0.93-6.58L270.88,313.01z M273.2,311.75c1.61,0.61,2.76,0.31,3.38-1.32   c0.56-1.47-0.04-2.42-1.93-3.14l-1.39-0.53l-1.67,4.38L273.2,311.75z"/>
	<path class="st0" d="M280.19,322.31l3.77-14.01l2.7,0.73l-3.77,14.01L280.19,322.31z"/>
	<path class="st0" d="M295.18,313.04l-2.11,12.12l-2.75-0.48l2.11-12.12l-3.85-0.67l0.38-2.17l10.61,1.85l-0.67,2.12L295.18,313.04z   "/>
	<path class="st0" d="M307.1,326.56l-2.81-0.14l0.27-5.48l-4.21-9.26l3.06,0.15l2.73,6.89l3.4-6.58l2.94,0.15l-5.11,8.77   L307.1,326.56z"/>
	<path class="st0" d="M325.64,313.38l1.51,12.21l-2.77,0.34l-1.51-12.21l-3.88,0.48l-0.27-2.19l10.69-1.32l-0.02,2.22L325.64,313.38   z"/>
	<path class="st0" d="M335.04,311.48l0.97,3.94l4.53-1.11l0.49,2l-4.53,1.11l1.02,4.14l5.57-1.37l0.5,2.02l-8.26,2.03l-3.46-14.1   l8.18-2.01l0.21,2.07L335.04,311.48z"/>
	<path class="st0" d="M352.87,304.76l-0.74,2.06c-1.01-0.36-1.94-0.38-2.88-0.02c-1.86,0.71-2.79,2.64-1.4,6.31   c1.36,3.57,3.33,4.49,5.27,3.75c1.16-0.44,1.75-1.3,2.31-2.19l1.82,1.11c-0.5,1.16-1.61,2.5-3.45,3.2   c-3.51,1.34-6.91-0.22-8.67-4.83c-1.73-4.55-0.09-8.03,3.2-9.29C350.11,304.17,351.42,304.25,352.87,304.76z"/>
	<path class="st0" d="M361.47,308.04l3.13,5.69l-2.43,1.34l-6.99-12.72l2.43-1.34l2.8,5.1l4.53-2.49l-2.8-5.1l2.45-1.35l6.99,12.72   l-2.45,1.35l-3.13-5.69L361.47,308.04z"/>
	<path class="st0" d="M382.72,301.99l-11.08-6.3c0.9,0.93,2.2,2.26,3.83,4.39l3.6,4.7l-2,1.53l-8.81-11.52l2.79-2.13l11.16,6.27   c-0.58-0.56-2.06-2.07-3.31-3.71l-4.13-5.4l2-1.53l8.81,11.52L382.72,301.99z"/>
	<path class="st0" d="M393.54,281.81c3.45,3.32,3.75,7.03,1.06,9.83c-2.7,2.8-6.37,2.7-9.86-0.66c-3.43-3.31-3.74-7.04-1.04-9.84   S390.05,278.44,393.54,281.81z M386.76,288.87c2.81,2.71,4.83,2.82,6.31,1.29c1.5-1.56,1.27-3.53-1.56-6.25   c-2.8-2.7-4.78-2.88-6.29-1.31C383.72,284.16,383.95,286.16,386.76,288.87z"/>
	<path class="st0" d="M405.34,274.38l1.64,1.6l-4.91,6.67l-11.69-8.6l1.64-2.23l9.87,7.26L405.34,274.38z"/>
	<path class="st0" d="M409.01,258.02c4.19,2.31,5.45,5.81,3.58,9.21c-1.87,3.4-5.44,4.26-9.69,1.92c-4.17-2.3-5.44-5.83-3.57-9.23   C401.21,256.52,404.76,255.68,409.01,258.02z M404.31,266.6c3.42,1.88,5.4,1.47,6.42-0.39c1.04-1.89,0.31-3.74-3.13-5.63   c-3.4-1.87-5.36-1.54-6.41,0.37C400.15,262.84,400.89,264.71,404.31,266.6z"/>
	<path class="st0" d="M409,241.86l0.95,1.97c-1.08,0.63-1.72,1.27-2.15,2.43c-0.71,1.93,0.13,4.12,3.79,5.48   c3.72,1.38,5.53,0.79,6.32-1.33c0.29-0.77,0.4-1.58,0.27-2.36l-3.55-1.31l-0.76,2.05l-2.03-0.44l1.81-4.89l6.66,2.47   c0.34,1.63,0.25,3.43-0.43,5.28c-1.4,3.78-4.63,5.01-9.3,3.28c-4.61-1.71-6.03-5.48-4.79-8.83   C406.5,243.72,407.6,242.64,409,241.86z"/>
	<path class="st0" d="M422.6,241.61l-14.06-3.6l0.69-2.71l14.05,3.6L422.6,241.61z"/>
	<path class="st0" d="M412.59,229.18l4,0.65l0.74-4.6l2.03,0.33l-0.74,4.6l4.21,0.68l0.91-5.66l2.05,0.33l-1.35,8.4l-14.33-2.31   l1.34-8.32l1.99,0.62L412.59,229.18z"/>
	<path class="st0" d="M413.6,210.96l1.54,1.47c-0.92,0.97-1.34,1.96-1.38,3.16c-0.05,1.3,0.5,2.27,1.63,2.31   c1.05,0.04,1.53-0.51,2.38-2.89c0.9-2.51,2.01-4.23,4.74-4.12c2.6,0.1,4.37,2.21,4.23,5.67c-0.09,2.31-0.98,4-2.2,5.15l-1.58-1.53   c0.98-0.97,1.58-2.12,1.63-3.63c0.06-1.55-0.65-2.69-2.06-2.75c-1.22-0.05-1.79,0.54-2.57,2.78c-1.06,3-2.33,4.28-4.54,4.19   c-2.41-0.09-3.93-2.23-3.81-5.09C411.71,213.56,412.39,212.18,413.6,210.96z"/>
</g>
<g>
	<path class="st3" d="M275.36,210.97v1.86c0,12.83-8.15,22.69-19.92,22.69s-21.26-11.28-21.26-24.24c0-13.45,9.71-24.49,21.82-24.49   c6.53,0,13,3.29,17.13,9.05l-3.68,3.91c-3.01-4.59-8.09-7.63-13.23-7.63c-9.43,0-16.8,8.49-16.8,18.97   c0,9.8,7.25,19.09,16.35,19.09c6.53,0,13.56-6.26,13.78-13.89h-10.88v-5.33H275.36z"/>
	<path class="st3" d="M283.5,193.12v13.14h14.62v5.33H283.5v22.94h-5.25v-46.75h20.37v5.33H283.5z"/>
	<path class="st3" d="M301.81,222.81l-4.8,11.72h-5.64l20.09-48.73l20.09,48.73h-5.64l-4.8-11.72H301.81z M311.46,198.57   l-7.48,18.91h14.96L311.46,198.57z"/>
	<path class="st3" d="M360.12,196.71c-3.01-2.98-7.14-4.59-11.1-4.59c-9.43,0-16.63,8.74-16.63,19.1c0,10.23,7.14,18.97,16.52,18.97   c4.13,0,8.09-1.74,11.22-4.84v6.88c-3.24,2.11-7.37,3.29-11.05,3.29c-12,0-21.93-10.6-21.93-24.12c0-13.83,9.99-24.61,22.38-24.61   c3.68,0,7.42,0.99,10.6,3.16V196.71z"/>
	<path class="st3" d="M377.69,234.53h-5.25v-41.41h-9.99v-5.33h25.22v5.33h-9.99V234.53z"/>
</g>
</svg>