<svg xmlns="http://www.w3.org/2000/svg" xmlns:xlink="http://www.w3.org/1999/xlink" version="1.1" id="Layer_1" x="0px" y="0px" style="enable-background:new 0 0 612 792;" xml:space="preserve" viewBox="180.33 80.44 262.44 262.44">
<style type="text/css">
	.st0{fill:#FFFFFF;}
	.st1{fill:#0256A7;}
	.st2{fill:none;stroke:#AC8B2F;stroke-width:4.9181;stroke-miterlimit:10;}
	.st3{fill:#AC8B2F;}
</style>
<circle class="st0" cx="311.55" cy="211.66" r="131.22"/>
<path class="st1" d="M438.96,211.66c0,70.32-57.01,127.33-127.33,127.33S184.3,281.98,184.3,211.66S241.31,84.34,311.63,84.34  S438.96,141.34,438.96,211.66z M311.63,124.83c-47.96,0-86.84,38.88-86.84,86.84s38.88,86.84,86.84,86.84s86.84-38.88,86.84-86.84  S359.59,124.83,311.63,124.83z"/>
<g>
	<g>
		<path class="st2" d="M380.39,178.51c-12.07-25.93-38.35-43.9-68.84-43.9c-30.48,0-56.77,17.97-68.84,43.9L380.39,178.51z"/>
		<path class="st2" d="M277.14,178.52c6.03-25.93,19.18-43.9,34.42-43.9c15.28,0,28.44,18.06,34.46,44.08"/>
		<line class="st2" x1="311.55" y1="134.61" x2="311.55" y2="178.52"/>
		<line class="st2" x1="259.84" y1="154.97" x2="363.27" y2="154.97"/>
	</g>
	<g>
		<path class="st2" d="M380.39,244.31c-12.07,25.93-38.35,43.9-68.84,43.9c-30.48,0-56.77-17.97-68.84-43.9L380.39,244.31z"/>
		<path class="st2" d="M277.14,244.31c6.03,25.93,19.18,43.9,34.42,43.9c15.28,0,28.44-18.06,34.46-44.08"/>
		<line class="st2" x1="311.55" y1="288.22" x2="311.55" y2="244.31"/>
		<line class="st2" x1="259.84" y1="267.86" x2="363.27" y2="267.86"/>
	</g>
</g>
<g>
	<path class="st0" d="M200.67,186.9l1.3,1.76c-0.95,0.82-1.46,1.56-1.67,2.78c-0.35,2.03,0.88,4.03,4.73,4.69   c3.91,0.67,5.58-0.23,5.96-2.47c0.14-0.81,0.11-1.62-0.17-2.37l-3.72-0.64l-0.37,2.15l-2.08-0.06l0.88-5.13l6.99,1.2   c0.63,1.54,0.88,3.32,0.54,5.27c-0.68,3.97-3.63,5.77-8.54,4.92c-4.84-0.83-6.93-4.28-6.33-7.8   C198.56,189.18,199.43,187.92,200.67,186.9z"/>
	<path class="st0" d="M214.88,184.68l-13.92-4.09l0.79-2.68l13.92,4.09L214.88,184.68z"/>
	<path class="st0" d="M214.87,174.03l2.75,2.13l-1.11,2.65l-11.65-9.75l1.32-3.16l15.12,1.44l-1.13,2.71l-3.45-0.46L214.87,174.03z    M207.46,168.34l5.68,4.37l1.42-3.41L207.46,168.34z"/>
	<path class="st0" d="M216.01,149.89l0.72,2.07c-1.01,0.36-1.75,0.93-2.26,1.8c-1,1.72-0.51,3.81,2.88,5.78   c3.3,1.92,5.41,1.39,6.45-0.41c0.62-1.07,0.55-2.11,0.42-3.15l2.11-0.28c0.34,1.22,0.32,2.96-0.67,4.66   c-1.89,3.25-5.51,4.18-9.78,1.7c-4.21-2.45-5.13-6.18-3.36-9.23C213.49,151.18,214.56,150.41,216.01,149.89z"/>
	<path class="st0" d="M230.29,132.46l0.25,2.11c-1.33,0.16-2.28,0.66-3.08,1.55c-0.87,0.97-1.06,2.07-0.22,2.82   c0.78,0.7,1.5,0.59,3.68-0.71c2.29-1.36,4.25-1.97,6.28-0.15c1.94,1.74,1.96,4.49-0.35,7.07c-1.54,1.72-3.3,2.46-4.97,2.56   l-0.24-2.19c1.38-0.12,2.57-0.63,3.58-1.76c1.04-1.16,1.22-2.49,0.17-3.43c-0.91-0.81-1.72-0.72-3.75,0.5   c-2.73,1.64-4.52,1.81-6.17,0.34c-1.8-1.61-1.6-4.22,0.3-6.35C227.18,133.26,228.59,132.63,230.29,132.46z"/>
	<path class="st0" d="M237.17,126.87l2.64,3.07l3.53-3.04l1.34,1.56l-3.53,3.04l2.78,3.23l4.34-3.74l1.36,1.58l-6.45,5.55l-9.47-11   l6.38-5.49l1.12,1.75L237.17,126.87z"/>
	<path class="st0" d="M253.97,113.54l-0.29,2.17c-1.06-0.13-1.98,0.04-2.82,0.59c-1.67,1.09-2.16,3.17-0.01,6.46   c2.09,3.2,4.21,3.67,5.95,2.53c1.04-0.68,1.43-1.64,1.79-2.63l2.01,0.69c-0.24,1.24-1.04,2.79-2.69,3.87   c-3.14,2.06-6.8,1.27-9.5-2.86c-2.67-4.07-1.81-7.82,1.14-9.76C251.15,113.55,252.45,113.35,253.97,113.54z"/>
	<path class="st0" d="M269.34,120.96c-3.23,1.51-5.75,0.39-7.01-2.32l-4.12-8.85l2.51-1.17l4.06,8.71c0.86,1.85,2.03,2.41,3.65,1.66   c1.64-0.76,1.95-2.02,1.09-3.87l-4.06-8.71l2.53-1.18l4.12,8.85C273.34,116.73,272.55,119.46,269.34,120.96z"/>
	<path class="st0" d="M279.61,110.38l1.64,5.58l-2.66,0.78l-4.1-13.92l4.15-1.22c3.65-1.07,5.91-0.3,6.72,2.46   c0.56,1.89-0.04,3.29-1.71,4.6l5.43,4.99l-3.06,0.9l-4.73-4.67L279.61,110.38z M280.7,107.98c1.65-0.49,2.38-1.42,1.89-3.1   c-0.45-1.51-1.5-1.9-3.44-1.33l-1.43,0.42l1.32,4.49L280.7,107.98z"/>
	<path class="st0" d="M292.65,113.1l-2.52-14.29l2.75-0.49l2.52,14.29L292.65,113.1z"/>
	<path class="st0" d="M304.87,99.21l0.87,12.28l-2.79,0.2l-0.87-12.28l-3.9,0.28l-0.16-2.2l10.75-0.76l-0.14,2.22L304.87,99.21z"/>
	<path class="st0" d="M318.96,111.59l-2.81-0.17l0.32-5.47l-4.12-9.29l3.06,0.18l2.66,6.91l3.46-6.55l2.94,0.17l-5.18,8.72   L318.96,111.59z"/>
	<path class="st0" d="M339.73,102.42l-1.05,3.91l4.5,1.21l-0.53,1.99l-4.5-1.21l-1.1,4.12l5.54,1.48l-0.54,2.01l-8.21-2.2   l3.75-14.01l8.13,2.18l-0.82,1.91L339.73,102.42z"/>
	<path class="st0" d="M359.35,108.72l-1.91,0.94c-0.59-1.2-1.38-1.94-2.49-2.39c-1.2-0.5-2.3-0.32-2.73,0.73   c-0.4,0.97-0.06,1.61,1.89,3.24c2.04,1.71,3.27,3.35,2.22,5.88c-1,2.4-3.59,3.33-6.79,2c-2.13-0.88-3.41-2.3-4.07-3.84l1.99-0.95   c0.57,1.26,1.45,2.21,2.84,2.79c1.44,0.59,2.75,0.32,3.29-0.98c0.47-1.12,0.11-1.86-1.72-3.37c-2.45-2.04-3.21-3.67-2.36-5.71   c0.92-2.23,3.46-2.91,6.09-1.81C357.58,106.05,358.63,107.17,359.35,108.72z"/>
	<path class="st0" d="M372.42,115.87l-2.02,0.68c-0.43-1.27-1.11-2.1-2.15-2.7c-1.13-0.65-2.24-0.62-2.81,0.37   c-0.53,0.91-0.27,1.59,1.45,3.46c1.8,1.96,2.8,3.75,1.43,6.12c-1.3,2.25-3.99,2.83-6.99,1.1c-2-1.16-3.08-2.73-3.53-4.34l2.09-0.68   c0.4,1.32,1.14,2.38,2.45,3.14c1.34,0.78,2.69,0.68,3.39-0.54c0.61-1.05,0.36-1.83-1.26-3.57c-2.16-2.34-2.7-4.06-1.59-5.97   c1.21-2.09,3.81-2.43,6.28-1C371,112.99,371.9,114.24,372.42,115.87z"/>
	<path class="st0" d="M379.33,121.49l-2.47,3.22l3.7,2.84l-1.25,1.63l-3.7-2.84l-2.6,3.38l4.55,3.49l-1.27,1.65l-6.75-5.18   l8.84-11.51l6.68,5.13l-1.49,1.45L379.33,121.49z"/>
	<path class="st0" d="M384.46,142.71l4.9-11.77c-0.81,1-1.97,2.46-3.89,4.34l-4.23,4.14l-1.76-1.8l10.36-10.15l2.45,2.5l-4.86,11.84   c0.48-0.65,1.81-2.3,3.28-3.74l4.86-4.76l1.76,1.8l-10.36,10.15L384.46,142.71z"/>
	<path class="st0" d="M403.17,146.09l-9.92,7.3l-1.66-2.25l9.92-7.3l-2.32-3.15l1.78-1.31l6.39,8.68l-1.95,1.07L403.17,146.09z"/>
	<path class="st0" d="M397.43,159.73l12.52-7.35l1.41,2.41l-12.51,7.35L397.43,159.73z"/>
	<path class="st0" d="M405.22,167.04l-3.44,0.55l-1.18-2.63l15.09-1.82l1.4,3.12l-11.4,10.04l-1.2-2.68l2.7-2.2L405.22,167.04z    M414.44,165.53l-7.08,1.15l1.51,3.37L414.44,165.53z"/>
	<path class="st0" d="M411.3,187.02l-2.26,0.35l-2.37-7.93l13.91-4.15l0.79,2.66l-11.73,3.5L411.3,187.02z"/>
	<path class="st0" d="M424.22,197.99l-1.8-1.13c0.71-1.14,0.92-2.19,0.72-3.37c-0.21-1.28-0.94-2.12-2.06-1.94   c-1.04,0.17-1.4,0.8-1.76,3.31c-0.38,2.64-1.13,4.55-3.82,4.99c-2.57,0.42-4.72-1.29-5.28-4.71c-0.37-2.28,0.16-4.11,1.12-5.48   l1.85,1.19c-0.77,1.15-1.12,2.4-0.88,3.89c0.25,1.53,1.18,2.51,2.56,2.28c1.2-0.2,1.64-0.89,1.96-3.24   c0.44-3.16,1.43-4.66,3.61-5.01c2.38-0.39,4.29,1.4,4.75,4.22C425.55,195.07,425.15,196.56,424.22,197.99z"/>
</g>
<g>
	<path class="st0" d="M245.37,289.05l-2.18,0.21c-0.11-1.07-0.49-1.92-1.22-2.62c-1.44-1.38-3.58-1.39-6.29,1.46   c-2.64,2.77-2.62,4.93-1.11,6.37c0.9,0.86,1.93,1.02,2.97,1.15l-0.22,2.11c-1.26,0.04-2.95-0.38-4.38-1.74   c-2.72-2.59-2.78-6.34,0.63-9.91c3.36-3.53,7.21-3.54,9.76-1.11C244.71,286.3,245.2,287.52,245.37,289.05z"/>
	<path class="st0" d="M250.75,294.23l-2.37,3.29l3.78,2.73l-1.2,1.67l-3.78-2.73l-2.49,3.46l4.65,3.35l-1.22,1.69l-6.9-4.97   l8.49-11.77l6.83,4.93l-1.44,1.5L250.75,294.23z"/>
	<path class="st0" d="M259.29,307.54l-2.7,5.15l-2.46-1.29l6.73-12.85l3.83,2.01c3.37,1.76,4.45,3.9,3.12,6.44   c-0.92,1.75-2.32,2.34-4.42,2.12l0.44,7.36L261,315l-0.15-6.64L259.29,307.54z M261.74,306.57c1.53,0.8,2.7,0.63,3.51-0.91   c0.73-1.4,0.24-2.41-1.54-3.34l-1.32-0.69l-2.17,4.15L261.74,306.57z"/>
	<path class="st0" d="M278.56,308.93l-4.11,11.6l-2.63-0.93l4.11-11.6l-3.68-1.31l0.74-2.08l10.15,3.6l-1.01,1.98L278.56,308.93z"/>
	<path class="st0" d="M283.55,323.21l3.35-14.12l2.72,0.65l-3.35,14.12L283.55,323.21z"/>
	<path class="st0" d="M297.4,313.21l-0.57,4.31l4.44,0.58l-0.27,2.04l-4.44-0.58l-0.79,6l-2.75-0.36l1.89-14.39l8.14,1.07l-0.56,2   L297.4,313.21z"/>
	<path class="st0" d="M306.69,326.54l0.43-14.51l2.79,0.08l-0.43,14.51L306.69,326.54z"/>
	<path class="st0" d="M325.2,312.58l-1.29,1.77c-0.87-0.63-1.76-0.91-2.76-0.83c-1.99,0.16-3.42,1.75-3.11,5.66   c0.3,3.81,1.93,5.24,4,5.08c1.24-0.1,2.05-0.75,2.83-1.45l1.43,1.57c-0.81,0.97-2.25,1.95-4.21,2.1c-3.75,0.3-6.58-2.15-6.97-7.07   c-0.39-4.86,2.17-7.74,5.68-8.01C322.72,311.24,323.95,311.69,325.2,312.58z"/>
	<path class="st0" d="M334.01,321.04l-0.14,3.48l-2.81,0.64l1.19-15.15l3.34-0.76l7.6,13.15l-2.87,0.65l-1.62-3.08L334.01,321.04z    M334.34,311.71l-0.27,7.17l3.6-0.82L334.34,311.71z"/>
	<path class="st0" d="M348.33,307.56l4.25,11.55l-2.62,0.96l-4.25-11.55l-3.67,1.35l-0.76-2.07l10.11-3.72l0.49,2.17L348.33,307.56z   "/>
	<path class="st0" d="M361.29,315.36l-6.44-13l2.5-1.24l6.44,13L361.29,315.36z"/>
	<path class="st0" d="M376.27,298.01c2.64,3.99,2.14,7.67-1.1,9.82c-3.24,2.15-6.8,1.26-9.48-2.79c-2.63-3.97-2.12-7.69,1.12-9.83   C370.04,293.06,373.59,293.96,376.27,298.01z M368.12,303.43c2.16,3.26,4.11,3.8,5.87,2.63c1.8-1.19,2.01-3.17-0.16-6.44   c-2.14-3.24-4.04-3.85-5.86-2.64C366.17,298.17,365.96,300.17,368.12,303.43z"/>
	<path class="st0" d="M391.43,294.38l-11.66-5.16c0.98,0.83,2.42,2.02,4.25,3.99l4.05,4.32l-1.84,1.72l-9.92-10.59l2.56-2.4   l11.73,5.12c-0.64-0.5-2.26-1.86-3.66-3.36l-4.65-4.96l1.84-1.72l9.92,10.59L391.43,294.38z"/>
</g>
<g>
	<path class="st3" d="M279.98,210.97v1.86c0,12.83-9.05,22.69-22.13,22.69c-13.08,0-23.62-11.28-23.62-24.24   c0-13.45,10.79-24.49,24.24-24.49c7.25,0,14.45,3.29,19.03,9.05l-4.09,3.91c-3.35-4.59-8.99-7.63-14.69-7.63   c-10.48,0-18.66,8.49-18.66,18.97c0,9.8,8.06,19.09,18.17,19.09c7.25,0,15.07-6.26,15.31-13.89h-12.09v-5.33H279.98z"/>
	<path class="st3" d="M306.52,196.65c-1.74-2.91-3.97-4.4-7.5-4.4c-3.72,0-7.81,2.54-7.81,6.63c0,3.66,3.6,5.58,6.51,6.7l3.35,1.3   c6.63,2.6,11.59,6.26,11.59,14.07c0,8.49-6.57,14.57-14.94,14.57c-7.56,0-13.45-5.58-14.45-13.08l5.89-1.24   c-0.06,5.15,4.03,8.87,9.05,8.87c5.02,0,8.62-4.22,8.62-9.11c0-5.02-4.03-7.19-8.06-8.87l-3.22-1.36   c-5.33-2.29-10.17-5.33-10.17-11.84c0-7.56,6.7-12.09,13.76-12.09c5.21,0,9.49,2.54,12.03,7.07L306.52,196.65z"/>
	<path class="st3" d="M319.05,187.78h25.11v5.33h-19.28v13.08h18.72v5.33h-18.72v17.67h19.28v5.33h-25.11V187.78z"/>
	<path class="st3" d="M385.38,196.71c-3.35-2.98-7.94-4.59-12.34-4.59c-10.48,0-18.47,8.74-18.47,19.1   c0,10.23,7.94,18.97,18.35,18.97c4.59,0,8.99-1.74,12.46-4.84v6.88c-3.6,2.11-8.18,3.29-12.28,3.29   c-13.33,0-24.36-10.6-24.36-24.12c0-13.83,11.1-24.61,24.86-24.61c4.09,0,8.25,0.99,11.78,3.16V196.71z"/>
</g>
</svg>